# xmcd
#
# Track frame offsets:
#	150
#	11732
#	26620
#	44292
#	55560
#	68902
#	82240
#	93922
#	107267
#	118962
#	130700
#	145117
#	155570
#	166535
#	183880
#	199815
#	214675
#	228252
#	241435
#	251492
#
# Disc length: 3566 seconds
#
# Revision: 3
# Processed by: cddbd v1.4PL0 Copyright (c) Steve Scherf et al.
#
# Submitted via: MusicManager v6.1.1.0
#
DISCID=050dec14
DTITLE=Crystal Gayle - The Crystal Gayle Collection CD1
DYEAR=1900
DGENRE=country
TTITLE0=Don't It Make My Brown Eyes Blue
TTITLE1=Cry Me A River
TTITLE2=Someday Soon
TTITLE3=Someboyd Loves You
TTITLE4=I'll Do It All Over Again
TTITLE5=I Wanna Come Back To You
TTITLE6=Hello I Love You
TTITLE7=Dreaming My Dreams With You
TTITLE8=It's All Right With Me
TTITLE9=Coming Closer
TTITLE10=River Road
TTITLE11=Wrong Road Again
TTITLE12=Ready For The Times To Get Better
TTITLE13=You Never Miss A Real Good Thing
TTITLE14=When I Dream
TTITLE15=Don't Treat Me Like A Stranger
TTITLE16=Hear Mender
TTITLE17=I Still Miss Someone
TTITLE18=Paintin' This Old Town Blue
TTITLE19=I'll Get Over You
EXTD=
EXTT0=
EXTT1=
EXTT2=
EXTT3=
EXTT4=
EXTT5=
EXTT6=
EXTT7=
EXTT8=
EXTT9=
EXTT10=
EXTT11=
EXTT12=
EXTT13=
EXTT14=
EXTT15=
EXTT16=
EXTT17=
EXTT18=
EXTT19=
PLAYORDER=
